<svg width="20" height="20" viewBox="0 0 20 20" fill="none" xmlns="http://www.w3.org/2000/svg">
<path fill-rule="evenodd" clip-rule="evenodd" d="M1 9C1 4.02944 5.02944 0 10 0C14.9706 0 19 4.02944 19 9C19 11.5737 17.9183 13.8965 16.1876 15.5356C15.7866 15.9153 15.1537 15.8981 14.7739 15.4971C14.3942 15.0961 14.4114 14.4632 14.8124 14.0834C16.1609 12.8063 17 11.002 17 9C17 5.13401 13.866 2 10 2C6.13401 2 3 5.13401 3 9C3 11.002 3.83911 12.8063 5.18762 14.0834C5.58862 14.4632 5.60583 15.0961 5.22607 15.4971C4.84631 15.8981 4.21338 15.9153 3.81238 15.5356C2.08166 13.8965 1 11.5737 1 9Z" fill="#4E7CAD"/>
<path fill-rule="evenodd" clip-rule="evenodd" d="M10 4C10.5523 4 11 4.44772 11 5V8.27939L13.3162 9.0513C13.8401 9.22592 14.1233 9.79222 13.9487 10.3162C13.7741 10.8401 13.2078 11.1233 12.6838 10.9487L9.68383 9.9489C9.27546 9.8128 9 9.43065 9 9.0002V5C9 4.44772 9.44772 4 10 4Z" fill="#4E7CAD"/>
<path fill-rule="evenodd" clip-rule="evenodd" d="M10 11.4998C10.5523 11.4998 11 11.9475 11 12.4998V16.9191L11.8753 16.2189C12.3066 15.8739 12.9359 15.9438 13.2809 16.3751C13.6259 16.8063 13.556 17.4356 13.1247 17.7806L10.6247 19.7806C10.2595 20.0728 9.74056 20.0728 9.37534 19.7806L6.87534 17.7806C6.44408 17.4356 6.37416 16.8063 6.71917 16.3751C7.06418 15.9438 7.69347 15.8739 8.12473 16.2189L9.00004 16.9191V12.4998C9.00004 11.9475 9.44775 11.4998 10 11.4998Z" fill="#588D92"/>
</svg>
