<svg width="20" height="20" viewBox="0 0 20 20" fill="none" xmlns="http://www.w3.org/2000/svg">
<path fill-rule="evenodd" clip-rule="evenodd" d="M2 6C2 4.34315 3.34315 3 5 3H15C16.6569 3 18 4.34315 18 6V15C18 16.6569 16.6569 18 15 18H5C3.34315 18 2 16.6569 2 15V6ZM5 5C4.44772 5 4 5.44772 4 6V15C4 15.5523 4.44772 16 5 16H15C15.5523 16 16 15.5523 16 15V6C16 5.44772 15.5523 5 15 5H5Z" fill="#7D7D7D"/>
<path fill-rule="evenodd" clip-rule="evenodd" d="M13 1C13.5523 1 14 1.44772 14 2V5C14 5.55228 13.5523 6 13 6C12.4477 6 12 5.55228 12 5V2C12 1.44772 12.4477 1 13 1Z" fill="#7D7D7D"/>
<path fill-rule="evenodd" clip-rule="evenodd" d="M7 1C7.55228 1 8 1.44772 8 2V5C8 5.55228 7.55228 6 7 6C6.44772 6 6 5.55228 6 5V2C6 1.44772 6.44772 1 7 1Z" fill="#7D7D7D"/>
<path fill-rule="evenodd" clip-rule="evenodd" d="M2 8C2 7.44772 2.44772 7 3 7H17C17.5523 7 18 7.44772 18 8C18 8.55228 17.5523 9 17 9H3C2.44772 9 2 8.55228 2 8Z" fill="#7D7D7D"/>
<path d="M6 10H8V12H6V10Z" fill="#7D7D7D"/>
<path d="M6 13H8V15H6V13Z" fill="#7D7D7D"/>
<path d="M9 10H11V12H9V10Z" fill="#7D7D7D"/>
<path d="M9 13H11V15H9V13Z" fill="#7D7D7D"/>
<path d="M12 10H14V12H12V10Z" fill="#7D7D7D"/>
<path d="M12 13H14V15H12V13Z" fill="#7D7D7D"/>
</svg>
