<svg width="20" height="20" viewBox="0 0 20 20" fill="none" xmlns="http://www.w3.org/2000/svg">
<path fill-rule="evenodd" clip-rule="evenodd" d="M3 2C1.34315 2 0 3.34315 0 5V14C0 15.6569 1.34315 17 3 17H9.87494C9.63286 16.3801 9.5 15.7056 9.5 15H3C2.44772 15 2 14.5523 2 14V5C2 4.44772 2.44772 4 3 4H13C13.5523 4 14 4.44772 14 5V9.59069C14.3243 9.53112 14.6585 9.5 15 9.5C15.3415 9.5 15.6757 9.53112 16 9.59069V5C16 3.34315 14.6569 2 13 2H3Z" fill="#EAEAEA"/>
<path d="M9 9H11V11C11 11 10.0312 10.9688 10 11C9.96881 11.0312 9 11 9 11V9Z" fill="#EAEAEA"/>
<path fill-rule="evenodd" clip-rule="evenodd" d="M11 0C11.5523 0 12 0.447715 12 1V4C12 4.55228 11.5523 5 11 5C10.4477 5 10 4.55228 10 4V1C10 0.447715 10.4477 0 11 0Z" fill="#EAEAEA"/>
<path fill-rule="evenodd" clip-rule="evenodd" d="M5 0C5.55228 0 6 0.447715 6 1V4C6 4.55228 5.55228 5 5 5C4.44772 5 4 4.55228 4 4V1C4 0.447715 4.44772 0 5 0Z" fill="#EAEAEA"/>
<path fill-rule="evenodd" clip-rule="evenodd" d="M0 7C0 7.55228 0.447715 8 1 8H15C15.5523 8 16 7.55228 16 7C16 6.44772 15.5523 6 15 6H1C0.447715 6 0 6.44772 0 7Z" fill="#EAEAEA"/>
<path d="M3 12H5V14H3V12Z" fill="#EAEAEA"/>
<path d="M3 9H5V11H3V9Z" fill="#EAEAEA"/>
<path d="M6 9H8V11H6V9Z" fill="#EAEAEA"/>
<path d="M6 12H8V14H6V12Z" fill="#EAEAEA"/>
<path fill-rule="evenodd" clip-rule="evenodd" d="M15 13C15.5523 13 16 13.4477 16 14V14.882L16.4472 15.1056C16.9412 15.3526 17.1414 15.9532 16.8944 16.4472C16.6474 16.9412 16.0468 17.1414 15.5528 16.8944L14.5528 16.3944C14.214 16.225 14 15.8788 14 15.5V14C14 13.4477 14.4477 13 15 13Z" fill="#EAEAEA"/>
<path fill-rule="evenodd" clip-rule="evenodd" d="M10 15C10 12.2386 12.2386 10 15 10C17.7614 10 20 12.2386 20 15C20 17.7614 17.7614 20 15 20C12.2386 20 10 17.7614 10 15ZM15 12C13.3431 12 12 13.3431 12 15C12 16.6569 13.3431 18 15 18C16.6569 18 18 16.6569 18 15C18 13.3431 16.6569 12 15 12Z" fill="#EAEAEA"/>
</svg>
