<svg width="20" height="20" viewBox="0 0 20 20" fill="none" xmlns="http://www.w3.org/2000/svg">
<path fill-rule="evenodd" clip-rule="evenodd" d="M10 13C11.3807 13 12.5 11.8807 12.5 10.5C12.5 9.11929 11.3807 8 10 8C8.61929 8 7.5 9.11929 7.5 10.5C7.5 11.8807 8.61929 13 10 13ZM14.5 10.5C14.5 12.9853 12.4853 15 10 15C7.51472 15 5.5 12.9853 5.5 10.5C5.5 8.01472 7.51472 6 10 6C12.4853 6 14.5 8.01472 14.5 10.5Z" fill="#F48220"/>
<path fill-rule="evenodd" clip-rule="evenodd" d="M15 10.5C15 9.94772 15.4477 9.5 16 9.5H18C18.5523 9.5 19 9.94772 19 10.5C19 11.0523 18.5523 11.5 18 11.5H16C15.4477 11.5 15 11.0523 15 10.5Z" fill="#F48220"/>
<path fill-rule="evenodd" clip-rule="evenodd" d="M1 10.5C1 9.94772 1.44772 9.5 2 9.5H4C4.55228 9.5 5 9.94772 5 10.5C5 11.0523 4.55228 11.5 4 11.5H2C1.44772 11.5 1 11.0523 1 10.5Z" fill="#F48220"/>
<path fill-rule="evenodd" clip-rule="evenodd" d="M10 1.5C10.5523 1.5 11 1.94772 11 2.5V4.5C11 5.05228 10.5523 5.5 10 5.5C9.44772 5.5 9 5.05228 9 4.5V2.5C9 1.94772 9.44772 1.5 10 1.5Z" fill="#F48220"/>
<path fill-rule="evenodd" clip-rule="evenodd" d="M10 15.5C10.5523 15.5 11 15.9477 11 16.5V18.5C11 19.0523 10.5523 19.5 10 19.5C9.44772 19.5 9 19.0523 9 18.5V16.5C9 15.9477 9.44772 15.5 10 15.5Z" fill="#F48220"/>
<path fill-rule="evenodd" clip-rule="evenodd" d="M16.3635 4.13603C16.754 4.52656 16.754 5.15972 16.3635 5.55025L14.9493 6.96446C14.5588 7.35498 13.9256 7.35498 13.5351 6.96446C13.1446 6.57394 13.1446 5.94077 13.5351 5.55025L14.9493 4.13603C15.3398 3.74551 15.973 3.74551 16.3635 4.13603Z" fill="#F48220"/>
<path fill-rule="evenodd" clip-rule="evenodd" d="M6.46409 14.0355C6.85462 14.426 6.85462 15.0592 6.46409 15.4497L5.04988 16.8639C4.65936 17.2545 4.02619 17.2545 3.63567 16.8639C3.24514 16.4734 3.24514 15.8402 3.63567 15.4497L5.04988 14.0355C5.4404 13.645 6.07357 13.645 6.46409 14.0355Z" fill="#F48220"/>
<path fill-rule="evenodd" clip-rule="evenodd" d="M3.63567 4.13603C4.02619 3.74551 4.65936 3.74551 5.04988 4.13603L6.46409 5.55025C6.85462 5.94077 6.85462 6.57394 6.46409 6.96446C6.07357 7.35498 5.4404 7.35498 5.04988 6.96446L3.63567 5.55025C3.24514 5.15972 3.24514 4.52656 3.63567 4.13603Z" fill="#F48220"/>
<path fill-rule="evenodd" clip-rule="evenodd" d="M13.5351 14.0355C13.9256 13.645 14.5588 13.645 14.9493 14.0355L16.3635 15.4497C16.754 15.8402 16.754 16.4734 16.3635 16.8639C15.973 17.2545 15.3398 17.2545 14.9493 16.8639L13.5351 15.4497C13.1446 15.0592 13.1446 14.426 13.5351 14.0355Z" fill="#F48220"/>
</svg>
