<svg width="20" height="20" viewBox="0 0 20 20" fill="none" xmlns="http://www.w3.org/2000/svg">
<path fill-rule="evenodd" clip-rule="evenodd" d="M16 12.5C16 11.9477 16.4477 11.5 17 11.5H19C19.5523 11.5 20 11.9477 20 12.5C20 13.0523 19.5523 13.5 19 13.5H17C16.4477 13.5 16 13.0523 16 12.5Z" fill="#FAAF56"/>
<path fill-rule="evenodd" clip-rule="evenodd" d="M0 12.5C0 11.9477 0.447715 11.5 1 11.5H3C3.55228 11.5 4 11.9477 4 12.5C4 13.0523 3.55228 13.5 3 13.5H1C0.447715 13.5 0 13.0523 0 12.5Z" fill="#FAAF56"/>
<path fill-rule="evenodd" clip-rule="evenodd" d="M10 2.5C10.5523 2.5 11 2.94772 11 3.5V5.5C11 6.05228 10.5523 6.5 10 6.5C9.44772 6.5 9 6.05228 9 5.5V3.5C9 2.94772 9.44772 2.5 10 2.5Z" fill="#FAAF56"/>
<path fill-rule="evenodd" clip-rule="evenodd" d="M17.3635 5.13603C17.754 5.52656 17.754 6.15972 17.3635 6.55025L15.9493 7.96446C15.5588 8.35498 14.9256 8.35498 14.5351 7.96446C14.1446 7.57394 14.1446 6.94077 14.5351 6.55025L15.9493 5.13603C16.3398 4.74551 16.973 4.74551 17.3635 5.13603Z" fill="#FAAF56"/>
<path fill-rule="evenodd" clip-rule="evenodd" d="M2.63567 5.13603C3.02619 4.74551 3.65936 4.74551 4.04988 5.13603L5.46409 6.55025C5.85462 6.94077 5.85462 7.57394 5.46409 7.96446C5.07357 8.35498 4.4404 8.35498 4.04988 7.96446L2.63567 6.55025C2.24514 6.15972 2.24514 5.52656 2.63567 5.13603Z" fill="#FAAF56"/>
<path fill-rule="evenodd" clip-rule="evenodd" d="M1 16C1 15.4477 1.44772 15 2 15L18 15C18.5523 15 19 15.4477 19 16C19 16.5523 18.5523 17 18 17L2 17C1.44772 17 1 16.5523 1 16Z" fill="#FAAF56"/>
<path fill-rule="evenodd" clip-rule="evenodd" d="M10 10C8.34315 10 7 11.3431 7 13C7 13.5523 6.55228 14 6 14C5.44772 14 5 13.5523 5 13C5 10.2386 7.23858 8 10 8C12.7614 8 15 10.2386 15 13C15 13.5523 14.5523 14 14 14C13.4477 14 13 13.5523 13 13C13 11.3431 11.6569 10 10 10Z" fill="#FAAF56"/>
</svg>
