<svg width="20" height="20" viewBox="0 0 20 20" fill="none" xmlns="http://www.w3.org/2000/svg">
<path fill-rule="evenodd" clip-rule="evenodd" d="M7.64151 2.23985C7.95268 2.50582 8.07033 2.93458 7.93848 3.32211C7.70201 4.01715 7.58323 4.73319 7.58323 5.46619C7.58323 9.29774 10.7009 12.416 14.5304 12.416C15.2613 12.416 15.9787 12.2968 16.6781 12.059C17.0656 11.9273 17.4942 12.0449 17.7601 12.356C18.026 12.6671 18.0756 13.1088 17.8852 13.471C16.4519 16.1982 13.5957 18 10.4418 18C5.78575 18 2 14.2125 2 9.55578C2 6.40337 3.80054 3.5488 6.52622 2.11499C6.8885 1.92442 7.33035 1.97389 7.64151 2.23985ZM5.58377 5.36861C4.58872 6.51127 4 7.99037 4 9.55578C4 13.1085 6.89095 16 10.4418 16C12.0081 16 13.4879 15.4109 14.6309 14.4154C14.5974 14.4158 14.5639 14.416 14.5304 14.416C9.59577 14.416 5.58323 10.4017 5.58323 5.46619C5.58323 5.43364 5.58341 5.40111 5.58377 5.36861Z" fill="#588D92"/>
</svg>
