<svg width="20" height="20" viewBox="0 0 20 20" fill="none" xmlns="http://www.w3.org/2000/svg">
<path fill-rule="evenodd" clip-rule="evenodd" d="M10 5C10.5523 5 11 5.44772 11 6V9.88197L13.4472 11.1056C13.9412 11.3526 14.1414 11.9532 13.8944 12.4472C13.6474 12.9412 13.0468 13.1414 12.5528 12.8944L9.55279 11.3944C9.214 11.225 9 10.8788 9 10.5V6C9 5.44772 9.44772 5 10 5Z" fill="#7D7D7D"/>
<path fill-rule="evenodd" clip-rule="evenodd" d="M1 10C1 5.02944 5.02944 1 10 1C14.9706 1 19 5.02944 19 10C19 14.9706 14.9706 19 10 19C5.02944 19 1 14.9706 1 10ZM10 3C6.13401 3 3 6.13401 3 10C3 13.866 6.13401 17 10 17C13.866 17 17 13.866 17 10C17 6.13401 13.866 3 10 3Z" fill="#7D7D7D"/>
</svg>
